<?xml version="1.0"?>
<svg id="Camada_1" xmlns="http://www.w3.org/2000/svg" version="1.1" viewBox="0 0 424.75 283.35">
  
  <defs>
    
  </defs>
  <path class="st2" d="M397.38,40.72h-52.39L313.97,0h-40.21l17.63,23.15h9.45l21.7,28.49-86.67,112.06-6.65-8.63-13.68,17.69,20.3,26.34,104.9-135.62h55.96c2.92,0,5.28,2.36,5.28,5.28v82.47c0,2.92-2.36,5.29-5.28,5.29h-90.93v-25.19l-22.75,29.42v18.52h114.35c15.11,0,27.36-12.25,27.36-27.36v-83.81c0-15.11-12.25-27.36-27.36-27.36"></path>
  <polygon class="st2" points="120.08 48.89 209.47 164.87 209.47 129.44 149.19 51.22 170.8 23.15 209.47 23.15 209.47 0 157.72 0 120.08 48.89"></polygon>
  <path class="st1" d="M118.12,23.15h130.05l21.7,28.49-86.67,112.06L96.51,51.22l21.61-28.08ZM28.03,63.47h50.61l104.53,135.62,115.77-149.68L261.29,0H105.04l-31.34,40.72H27.36c-15.11,0-27.36,12.25-27.36,27.36v83.81c0,15.12,12.25,27.36,27.36,27.36h121.26l-17.52-22.75H28.03c-2.92,0-5.28-2.37-5.28-5.29v-82.47c0-2.92,2.36-5.28,5.28-5.28"></path>
  <path class="st0" d="M46.15,243c-7.24,0-12.36,5.6-12.36,13.9s5.12,14.09,12.36,14.09c5.31,0,9.46-2.03,12.07-6.08l10.23,6.95c-4.35,7.24-12.45,11.49-23.08,11.49-15.74,0-26.45-10.62-26.45-26.36s10.72-26.65,26.65-26.65c9.95,0,17.86,3.96,22.49,10.91l-10.04,7.24c-2.79-3.48-6.76-5.59-11.87-5.5"></path>
  <polygon class="st0" points="80.81 230.83 93.07 268.68 105.23 230.83 120.01 230.83 100.41 282.78 85.15 282.78 65.46 230.93 80.81 230.83"></polygon>
  <path class="st0" d="M156.5,257c0-8.5-5.31-14.39-12.94-14.39s-13.04,5.99-13.13,14.39c.09,8.5,5.31,14.39,13.13,14.39s12.94-5.89,12.94-14.39M171.27,211.14v71.63h-14.77v-7.63c-3.67,5.31-9.26,8.21-16.41,8.21-14.77,0-24.52-10.72-24.52-26.75s9.65-26.35,24.13-26.35c7.34,0,13.04,2.89,16.8,8.2v-27.32h14.77Z"></path>
  <path class="st0" d="M220.41,254.2c-.48-9.85-7.05-16.22-16.99-16.22s-16.7,6.37-17.76,16.22h34.75ZM227.17,260.18h-41.51c1.25,10.04,8.5,16.61,18.44,16.61,6.28,0,11.78-2.32,15.74-6.47l4.15,4.35c-4.83,5.31-11.97,8.4-20.46,8.4-14.97,0-25.3-10.52-25.3-25.68s10.42-25.58,25.19-25.68c16.41,0,24.53,11.3,23.75,28.48"></path>
  <path class="st0" d="M281.82,251.49v31.28h-7.53v-29.35c0-9.08-5.41-14.49-14.39-14.49-10.04.1-16.22,6.76-17.09,16.61v27.22h-7.53v-50.78h7.53v11.2c3.58-7.72,10.43-11.39,19.7-11.49,12.16,0,19.31,7.43,19.31,19.79"></path>
  <path class="st0" d="M320.05,279.3c-3.57,2.41-7.43,3.76-11.49,3.76-7.43.1-12.94-4.35-12.94-14.39v-29.25h-7.34v-5.89h7.34v-13.32h7.43v13.32h16.12v5.89h-16.12v28c0,6.18,2.41,8.68,6.76,8.68,2.61-.09,5.31-.96,8.11-2.61l2.13,5.8Z"></path>
  <path class="st0" d="M370.74,231.99v50.79h-7.53v-11.49c-3.38,7.91-10.13,11.69-19.31,11.78-11.88,0-19.02-7.53-19.02-19.79v-31.28h7.53v29.35c0,9.07,5.31,14.48,14.1,14.48,10.52-.19,16.7-7.91,16.7-18.93v-24.91h7.53Z"></path>
  <path class="st0" d="M397.29,237.98c-5.7,0-10.04,2.03-10.04,6.85,0,11.49,28.38,5.6,28.38,23.85,0,9.94-8.88,14.39-18.63,14.39-7.25,0-14.68-2.51-19.51-7.15l2.9-5.5c4.34,4.05,10.91,6.46,16.89,6.46s10.82-2.31,10.91-7.43c.29-12.35-28.19-6.08-28.1-24.04,0-9.65,8.4-13.8,17.67-13.8,6.08,0,11.97,1.83,16.22,4.63l-2.9,5.8c-3.96-2.51-9.07-4.06-13.8-4.06"></path>
</svg>